{
    "asset" : {
        "generator" : "Khronos glTF Blender I/O v1.3.48",
        "version" : "2.0"
    },
    "scene" : 0,
    "scenes" : [
        {
            "name" : "Scene",
            "nodes" : [
                0,
                1,
                2,
                3,
                4
            ]
        }
    ],
    "nodes" : [
        {
            "mesh" : 0,
            "name" : "Suzanne",
            "rotation" : [
                0.1411670297384262,
                -0.24636563658714294,
                -0.36506766080856323,
                0.8866236209869385
            ],
            "translation" : [
                -1.4811763763427734,
                0.8755728602409363,
                2.2740936279296875
            ]
        },
        {
            "mesh" : 1,
            "name" : "Suzanne.001",
            "rotation" : [
                -0.430865615606308,
                -0.28568026423454285,
                -0.2285514622926712,
                0.824927806854248
            ],
            "translation" : [
                -0.29987263679504395,
                1.9228565692901611,
                -1.6913928985595703
            ]
        },
        {
            "mesh" : 2,
            "name" : "Suzanne.002",
            "rotation" : [
                0.4061982333660126,
                0.2693248391151428,
                0.2154667228460312,
                0.8461921811103821
            ],
            "translation" : [
                -0.012563824653625488,
                -0.7432732582092285,
                0.9446797370910645
            ]
        },
        {
            "mesh" : 3,
            "name" : "Suzanne.003",
            "rotation" : [
                0.053053900599479675,
                0.5429370999336243,
                -0.2599402964115143,
                0.7967657446861267
            ],
            "translation" : [
                1.045169711112976,
                -0.08182179927825928,
                -2.265424966812134
            ]
        },
        {
            "mesh" : 4,
            "name" : "Cube",
            "scale" : [
                4.210180759429932,
                4.210180759429932,
                4.210180759429932
            ]
        }
    ],
    "materials" : [
        {
            "doubleSided" : true,
            "emissiveFactor" : [
                0,
                0,
                0
            ],
            "name" : "Material.005",
            "pbrMetallicRoughness" : {
                "metallicFactor" : 0,
                "roughnessFactor" : 0.5
            }
        },
        {
            "doubleSided" : true,
            "emissiveFactor" : [
                0,
                0,
                0
            ],
            "name" : "Material.002",
            "pbrMetallicRoughness" : {
                "baseColorFactor" : [
                    0.15076477825641632,
                    0.08349495381116867,
                    0.8000000715255737,
                    1
                ],
                "metallicFactor" : 0,
                "roughnessFactor" : 0.5
            }
        },
        {
            "doubleSided" : true,
            "name" : "Material.003",
            "pbrMetallicRoughness" : {}
        },
        {
            "doubleSided" : true,
            "emissiveFactor" : [
                1,
                0.2923082113265991,
                0.17829035222530365
            ],
            "name" : "Material.001",
            "pbrMetallicRoughness" : {}
        }
    ],
    "meshes" : [
        {
            "name" : "Suzanne",
            "primitives" : [
                {
                    "attributes" : {
                        "POSITION" : 0,
                        "NORMAL" : 1,
                        "TEXCOORD_0" : 2
                    },
                    "indices" : 3,
                    "material" : 0
                }
            ]
        },
        {
            "name" : "Suzanne.001",
            "primitives" : [
                {
                    "attributes" : {
                        "POSITION" : 4,
                        "NORMAL" : 5,
                        "TEXCOORD_0" : 6
                    },
                    "indices" : 7,
                    "material" : 1
                }
            ]
        },
        {
            "name" : "Suzanne.002",
            "primitives" : [
                {
                    "attributes" : {
                        "POSITION" : 8,
                        "NORMAL" : 9,
                        "TEXCOORD_0" : 10
                    },
                    "indices" : 3,
                    "material" : 2
                }
            ]
        },
        {
            "name" : "Suzanne.003",
            "primitives" : [
                {
                    "attributes" : {
                        "POSITION" : 11,
                        "NORMAL" : 12,
                        "TEXCOORD_0" : 13
                    },
                    "indices" : 3,
                    "material" : 3
                }
            ]
        },
        {
            "name" : "Cube.001",
            "primitives" : [
                {
                    "attributes" : {
                        "POSITION" : 14,
                        "NORMAL" : 15,
                        "TEXCOORD_0" : 16
                    },
                    "indices" : 17
                }
            ]
        }
    ],
    "accessors" : [
        {
            "bufferView" : 0,
            "componentType" : 5126,
            "count" : 1966,
            "max" : [
                1.3671875,
                0.984375,
                0.8515625
            ],
            "min" : [
                -1.3671875,
                -0.984375,
                -0.8515625
            ],
            "type" : "VEC3"
        },
        {
            "bufferView" : 1,
            "componentType" : 5126,
            "count" : 1966,
            "type" : "VEC3"
        },
        {
            "bufferView" : 2,
            "componentType" : 5126,
            "count" : 1966,
            "type" : "VEC2"
        },
        {
            "bufferView" : 3,
            "componentType" : 5123,
            "count" : 2904,
            "type" : "SCALAR"
        },
        {
            "bufferView" : 4,
            "componentType" : 5126,
            "count" : 3000,
            "max" : [
                1.325934886932373,
                0.9392361640930176,
                0.8223199844360352
            ],
            "min" : [
                -1.325934886932373,
                -0.9704862236976624,
                -0.7782661318778992
            ],
            "type" : "VEC3"
        },
        {
            "bufferView" : 5,
            "componentType" : 5126,
            "count" : 3000,
            "type" : "VEC3"
        },
        {
            "bufferView" : 6,
            "componentType" : 5126,
            "count" : 3000,
            "type" : "VEC2"
        },
        {
            "bufferView" : 7,
            "componentType" : 5123,
            "count" : 11808,
            "type" : "SCALAR"
        },
        {
            "bufferView" : 8,
            "componentType" : 5126,
            "count" : 1966,
            "max" : [
                1.3671875,
                0.984375,
                0.8515625
            ],
            "min" : [
                -1.3671875,
                -0.984375,
                -0.8515625
            ],
            "type" : "VEC3"
        },
        {
            "bufferView" : 9,
            "componentType" : 5126,
            "count" : 1966,
            "type" : "VEC3"
        },
        {
            "bufferView" : 10,
            "componentType" : 5126,
            "count" : 1966,
            "type" : "VEC2"
        },
        {
            "bufferView" : 11,
            "componentType" : 5126,
            "count" : 1966,
            "max" : [
                1.3671875,
                0.984375,
                0.8515625
            ],
            "min" : [
                -1.3671875,
                -0.984375,
                -0.8515625
            ],
            "type" : "VEC3"
        },
        {
            "bufferView" : 12,
            "componentType" : 5126,
            "count" : 1966,
            "type" : "VEC3"
        },
        {
            "bufferView" : 13,
            "componentType" : 5126,
            "count" : 1966,
            "type" : "VEC2"
        },
        {
            "bufferView" : 14,
            "componentType" : 5126,
            "count" : 24,
            "max" : [
                1,
                1,
                1
            ],
            "min" : [
                -1,
                -1,
                -1
            ],
            "type" : "VEC3"
        },
        {
            "bufferView" : 15,
            "componentType" : 5126,
            "count" : 24,
            "type" : "VEC3"
        },
        {
            "bufferView" : 16,
            "componentType" : 5126,
            "count" : 24,
            "type" : "VEC2"
        },
        {
            "bufferView" : 17,
            "componentType" : 5123,
            "count" : 36,
            "type" : "SCALAR"
        }
    ],
    "bufferViews" : [
        {
            "buffer" : 0,
            "byteLength" : 23592,
            "byteOffset" : 0
        },
        {
            "buffer" : 0,
            "byteLength" : 23592,
            "byteOffset" : 23592
        },
        {
            "buffer" : 0,
            "byteLength" : 15728,
            "byteOffset" : 47184
        },
        {
            "buffer" : 0,
            "byteLength" : 5808,
            "byteOffset" : 62912
        },
        {
            "buffer" : 0,
            "byteLength" : 36000,
            "byteOffset" : 68720
        },
        {
            "buffer" : 0,
            "byteLength" : 36000,
            "byteOffset" : 104720
        },
        {
            "buffer" : 0,
            "byteLength" : 24000,
            "byteOffset" : 140720
        },
        {
            "buffer" : 0,
            "byteLength" : 23616,
            "byteOffset" : 164720
        },
        {
            "buffer" : 0,
            "byteLength" : 23592,
            "byteOffset" : 188336
        },
        {
            "buffer" : 0,
            "byteLength" : 23592,
            "byteOffset" : 211928
        },
        {
            "buffer" : 0,
            "byteLength" : 15728,
            "byteOffset" : 235520
        },
        {
            "buffer" : 0,
            "byteLength" : 23592,
            "byteOffset" : 251248
        },
        {
            "buffer" : 0,
            "byteLength" : 23592,
            "byteOffset" : 274840
        },
        {
            "buffer" : 0,
            "byteLength" : 15728,
            "byteOffset" : 298432
        },
        {
            "buffer" : 0,
            "byteLength" : 288,
            "byteOffset" : 314160
        },
        {
            "buffer" : 0,
            "byteLength" : 288,
            "byteOffset" : 314448
        },
        {
            "buffer" : 0,
            "byteLength" : 192,
            "byteOffset" : 314736
        },
        {
            "buffer" : 0,
            "byteLength" : 72,
            "byteOffset" : 314928
        }
    ],
    "buffers" : [
        {
            "byteLength" : 315000,
            "uri" : "data:application/octet-stream;base64,"
        }
    ]
}
