{
    "asset" : {
        "generator" : "Khronos glTF Blender I/O v1.3.48",
        "version" : "2.0"
    },
    "scene" : 0,
    "scenes" : [
        {
            "name" : "Scene",
            "nodes" : [
                0,
                1,
                2,
                3,
                4,
                5,
                9
            ]
        }
    ],
    "nodes" : [
        {
            "extras" : {
                "PhsxBehavior" : 0
            },
            "mesh" : 0,
            "name" : "Cylinder"
        },
        {
            "extras" : {
                "PhsxBehavior" : 1
            },
            "mesh" : 1,
            "name" : "Suzanne",
            "rotation" : [
                0,
                0.4471896290779114,
                0,
                -0.894439160823822
            ],
            "translation" : [
                -1.929213285446167,
                2.128533124923706,
                0
            ]
        },
        {
            "extras" : {
                "PhsxBehavior" : 1
            },
            "mesh" : 2,
            "name" : "Sphere",
            "translation" : [
                0.45459917187690735,
                1.7446645498275757,
                -0.8036770224571228
            ]
        },
        {
            "extras" : {
                "PhsxBehavior" : 1
            },
            "mesh" : 3,
            "name" : "Cube",
            "rotation" : [
                -0.24865053594112396,
                -0.21769624948501587,
                -0.17471183836460114,
                0.9275004267692566
            ],
            "translation" : [
                1.9427809715270996,
                2.768352508544922,
                0.8094225525856018
            ]
        },
        {
            "extras" : {
                "PhsxBehavior" : 1
            },
            "mesh" : 4,
            "name" : "Cylinder.001",
            "rotation" : [
                0.1478988528251648,
                0.241530179977417,
                0.9556400179862976,
                0.08087793737649918
            ],
            "translation" : [
                -0.13013781607151031,
                3.3888468742370605,
                0
            ]
        },
        {
            "extras" : {
                "PhsxBehavior" : 1
            },
            "mesh" : 5,
            "name" : "Cone",
            "rotation" : [
                0.6050237417221069,
                -0.06700819730758667,
                0.7884992957115173,
                -0.0878923311829567
            ],
            "scale" : [
                0.4751821756362915,
                0.4751821756362915,
                0.4751821756362915
            ],
            "translation" : [
                0,
                1.778635859489441,
                1.5314757823944092
            ]
        },
        {
            "mesh" : 6,
            "name" : "Sphere.001",
            "translation" : [
                0.2513695955276489,
                0.18395614624023438,
                -0.29356062412261963
            ]
        },
        {
            "mesh" : 7,
            "name" : "Sphere.002",
            "translation" : [
                0.3432815670967102,
                -0.11645352840423584,
                0.33670854568481445
            ]
        },
        {
            "mesh" : 8,
            "name" : "Sphere.003",
            "translation" : [
                -0.26772117614746094,
                -0.3539086580276489,
                -0.14091169834136963
            ]
        },
        {
            "children" : [
                6,
                7,
                8
            ],
            "extras" : {
                "PhsxBehavior" : 1
            },
            "name" : "Empty",
            "rotation" : [
                0.2850593328475952,
                -0.07973198592662811,
                0.09796617925167084,
                0.9501509666442871
            ],
            "translation" : [
                -1.6375362873077393,
                1.617050051689148,
                1.8455901145935059
            ]
        }
    ],
    "materials" : [
        {
            "doubleSided" : true,
            "emissiveFactor" : [
                0,
                0,
                0
            ],
            "name" : "Material.001",
            "pbrMetallicRoughness" : {
                "baseColorFactor" : [
                    1,
                    1,
                    1,
                    1
                ],
                "metallicFactor" : 0,
                "roughnessFactor" : 0
            }
        },
        {
            "doubleSided" : true,
            "emissiveFactor" : [
                0,
                0,
                0
            ],
            "name" : "Material.003",
            "pbrMetallicRoughness" : {
                "baseColorFactor" : [
                    0.0824103057384491,
                    0.7609764337539673,
                    0.8000000715255737,
                    1
                ],
                "metallicFactor" : 0,
                "roughnessFactor" : 0.5
            }
        },
        {
            "doubleSided" : true,
            "emissiveFactor" : [
                0,
                0,
                0
            ],
            "name" : "Material.005",
            "pbrMetallicRoughness" : {
                "baseColorFactor" : [
                    0.8000000715255737,
                    0.13992255926132202,
                    0.10468186438083649,
                    1
                ],
                "metallicFactor" : 0,
                "roughnessFactor" : 0.5
            }
        },
        {
            "doubleSided" : true,
            "emissiveFactor" : [
                0,
                0,
                0
            ],
            "name" : "Material.004",
            "pbrMetallicRoughness" : {
                "baseColorFactor" : [
                    0.16281738877296448,
                    0.07091468572616577,
                    0.8000000715255737,
                    1
                ],
                "metallicFactor" : 0,
                "roughnessFactor" : 0.5
            }
        },
        {
            "doubleSided" : true,
            "emissiveFactor" : [
                0,
                0,
                0
            ],
            "name" : "Material.002",
            "pbrMetallicRoughness" : {
                "baseColorFactor" : [
                    0.8000000715255737,
                    0.09566832333803177,
                    0.23654820024967194,
                    1
                ],
                "metallicFactor" : 0,
                "roughnessFactor" : 0
            }
        }
    ],
    "meshes" : [
        {
            "name" : "Cylinder",
            "primitives" : [
                {
                    "attributes" : {
                        "POSITION" : 0,
                        "NORMAL" : 1,
                        "TEXCOORD_0" : 2
                    },
                    "indices" : 3,
                    "material" : 0
                }
            ]
        },
        {
            "name" : "Suzanne",
            "primitives" : [
                {
                    "attributes" : {
                        "POSITION" : 4,
                        "NORMAL" : 5,
                        "TEXCOORD_0" : 6
                    },
                    "indices" : 7,
                    "material" : 1
                }
            ]
        },
        {
            "name" : "Sphere",
            "primitives" : [
                {
                    "attributes" : {
                        "POSITION" : 8,
                        "NORMAL" : 9,
                        "TEXCOORD_0" : 10
                    },
                    "indices" : 11,
                    "material" : 2
                }
            ]
        },
        {
            "name" : "Cube.001",
            "primitives" : [
                {
                    "attributes" : {
                        "POSITION" : 12,
                        "NORMAL" : 13,
                        "TEXCOORD_0" : 14
                    },
                    "indices" : 15,
                    "material" : 3
                }
            ]
        },
        {
            "name" : "Cylinder.001",
            "primitives" : [
                {
                    "attributes" : {
                        "POSITION" : 16,
                        "NORMAL" : 17,
                        "TEXCOORD_0" : 18
                    },
                    "indices" : 3,
                    "material" : 4
                }
            ]
        },
        {
            "name" : "Cone",
            "primitives" : [
                {
                    "attributes" : {
                        "POSITION" : 19,
                        "NORMAL" : 20,
                        "TEXCOORD_0" : 21
                    },
                    "indices" : 22,
                    "material" : 4
                }
            ]
        },
        {
            "name" : "Sphere.001",
            "primitives" : [
                {
                    "attributes" : {
                        "POSITION" : 23,
                        "NORMAL" : 24,
                        "TEXCOORD_0" : 25
                    },
                    "indices" : 26
                }
            ]
        },
        {
            "name" : "Sphere.002",
            "primitives" : [
                {
                    "attributes" : {
                        "POSITION" : 27,
                        "NORMAL" : 28,
                        "TEXCOORD_0" : 29
                    },
                    "indices" : 26
                }
            ]
        },
        {
            "name" : "Sphere.003",
            "primitives" : [
                {
                    "attributes" : {
                        "POSITION" : 30,
                        "NORMAL" : 31,
                        "TEXCOORD_0" : 32
                    },
                    "indices" : 26
                }
            ]
        }
    ],
    "accessors" : [
        {
            "bufferView" : 0,
            "componentType" : 5126,
            "count" : 192,
            "max" : [
                4,
                0.10000000149011612,
                4
            ],
            "min" : [
                -4,
                -0.10000000149011612,
                -4
            ],
            "type" : "VEC3"
        },
        {
            "bufferView" : 1,
            "componentType" : 5126,
            "count" : 192,
            "type" : "VEC3"
        },
        {
            "bufferView" : 2,
            "componentType" : 5126,
            "count" : 192,
            "type" : "VEC2"
        },
        {
            "bufferView" : 3,
            "componentType" : 5123,
            "count" : 372,
            "type" : "SCALAR"
        },
        {
            "bufferView" : 4,
            "componentType" : 5126,
            "count" : 1968,
            "max" : [
                1.0125852823257446,
                0.7290613651275635,
                0.6306959390640259
            ],
            "min" : [
                -1.0125852823257446,
                -0.7290613651275635,
                -0.6306959390640259
            ],
            "type" : "VEC3"
        },
        {
            "bufferView" : 5,
            "componentType" : 5126,
            "count" : 1968,
            "type" : "VEC3"
        },
        {
            "bufferView" : 6,
            "componentType" : 5126,
            "count" : 1968,
            "type" : "VEC2"
        },
        {
            "bufferView" : 7,
            "componentType" : 5123,
            "count" : 2904,
            "type" : "SCALAR"
        },
        {
            "bufferView" : 8,
            "componentType" : 5126,
            "count" : 1984,
            "max" : [
                0.5871999263763428,
                0.5871998071670532,
                0.5872000455856323
            ],
            "min" : [
                -0.5871996879577637,
                -0.5871998071670532,
                -0.5871998071670532
            ],
            "type" : "VEC3"
        },
        {
            "bufferView" : 9,
            "componentType" : 5126,
            "count" : 1984,
            "type" : "VEC3"
        },
        {
            "bufferView" : 10,
            "componentType" : 5126,
            "count" : 1984,
            "type" : "VEC2"
        },
        {
            "bufferView" : 11,
            "componentType" : 5123,
            "count" : 2880,
            "type" : "SCALAR"
        },
        {
            "bufferView" : 12,
            "componentType" : 5126,
            "count" : 24,
            "max" : [
                0.47911137342453003,
                0.47911137342453003,
                0.47911137342453003
            ],
            "min" : [
                -0.47911137342453003,
                -0.47911137342453003,
                -0.47911137342453003
            ],
            "type" : "VEC3"
        },
        {
            "bufferView" : 13,
            "componentType" : 5126,
            "count" : 24,
            "type" : "VEC3"
        },
        {
            "bufferView" : 14,
            "componentType" : 5126,
            "count" : 24,
            "type" : "VEC2"
        },
        {
            "bufferView" : 15,
            "componentType" : 5123,
            "count" : 36,
            "type" : "SCALAR"
        },
        {
            "bufferView" : 16,
            "componentType" : 5126,
            "count" : 192,
            "max" : [
                0.32344597578048706,
                0.8339600563049316,
                0.32344597578048706
            ],
            "min" : [
                -0.32344597578048706,
                -0.8339600563049316,
                -0.32344597578048706
            ],
            "type" : "VEC3"
        },
        {
            "bufferView" : 17,
            "componentType" : 5126,
            "count" : 192,
            "type" : "VEC3"
        },
        {
            "bufferView" : 18,
            "componentType" : 5126,
            "count" : 192,
            "type" : "VEC2"
        },
        {
            "bufferView" : 19,
            "componentType" : 5126,
            "count" : 128,
            "max" : [
                1,
                1,
                1
            ],
            "min" : [
                -1,
                -1,
                -1
            ],
            "type" : "VEC3"
        },
        {
            "bufferView" : 20,
            "componentType" : 5126,
            "count" : 128,
            "type" : "VEC3"
        },
        {
            "bufferView" : 21,
            "componentType" : 5126,
            "count" : 128,
            "type" : "VEC2"
        },
        {
            "bufferView" : 22,
            "componentType" : 5123,
            "count" : 186,
            "type" : "SCALAR"
        },
        {
            "bufferView" : 23,
            "componentType" : 5126,
            "count" : 1984,
            "max" : [
                0.389114111661911,
                0.38911402225494385,
                0.3891141712665558
            ],
            "min" : [
                -0.3891139626502991,
                -0.38911402225494385,
                -0.38911402225494385
            ],
            "type" : "VEC3"
        },
        {
            "bufferView" : 24,
            "componentType" : 5126,
            "count" : 1984,
            "type" : "VEC3"
        },
        {
            "bufferView" : 25,
            "componentType" : 5126,
            "count" : 1984,
            "type" : "VEC2"
        },
        {
            "bufferView" : 26,
            "componentType" : 5123,
            "count" : 2880,
            "type" : "SCALAR"
        },
        {
            "bufferView" : 27,
            "componentType" : 5126,
            "count" : 1984,
            "max" : [
                0.389114111661911,
                0.38911402225494385,
                0.3891141712665558
            ],
            "min" : [
                -0.3891139626502991,
                -0.38911402225494385,
                -0.38911402225494385
            ],
            "type" : "VEC3"
        },
        {
            "bufferView" : 28,
            "componentType" : 5126,
            "count" : 1984,
            "type" : "VEC3"
        },
        {
            "bufferView" : 29,
            "componentType" : 5126,
            "count" : 1984,
            "type" : "VEC2"
        },
        {
            "bufferView" : 30,
            "componentType" : 5126,
            "count" : 1984,
            "max" : [
                0.389114111661911,
                0.38911402225494385,
                0.3891141712665558
            ],
            "min" : [
                -0.3891139626502991,
                -0.38911402225494385,
                -0.38911402225494385
            ],
            "type" : "VEC3"
        },
        {
            "bufferView" : 31,
            "componentType" : 5126,
            "count" : 1984,
            "type" : "VEC3"
        },
        {
            "bufferView" : 32,
            "componentType" : 5126,
            "count" : 1984,
            "type" : "VEC2"
        }
    ],
    "bufferViews" : [
        {
            "buffer" : 0,
            "byteLength" : 2304,
            "byteOffset" : 0
        },
        {
            "buffer" : 0,
            "byteLength" : 2304,
            "byteOffset" : 2304
        },
        {
            "buffer" : 0,
            "byteLength" : 1536,
            "byteOffset" : 4608
        },
        {
            "buffer" : 0,
            "byteLength" : 744,
            "byteOffset" : 6144
        },
        {
            "buffer" : 0,
            "byteLength" : 23616,
            "byteOffset" : 6888
        },
        {
            "buffer" : 0,
            "byteLength" : 23616,
            "byteOffset" : 30504
        },
        {
            "buffer" : 0,
            "byteLength" : 15744,
            "byteOffset" : 54120
        },
        {
            "buffer" : 0,
            "byteLength" : 5808,
            "byteOffset" : 69864
        },
        {
            "buffer" : 0,
            "byteLength" : 23808,
            "byteOffset" : 75672
        },
        {
            "buffer" : 0,
            "byteLength" : 23808,
            "byteOffset" : 99480
        },
        {
            "buffer" : 0,
            "byteLength" : 15872,
            "byteOffset" : 123288
        },
        {
            "buffer" : 0,
            "byteLength" : 5760,
            "byteOffset" : 139160
        },
        {
            "buffer" : 0,
            "byteLength" : 288,
            "byteOffset" : 144920
        },
        {
            "buffer" : 0,
            "byteLength" : 288,
            "byteOffset" : 145208
        },
        {
            "buffer" : 0,
            "byteLength" : 192,
            "byteOffset" : 145496
        },
        {
            "buffer" : 0,
            "byteLength" : 72,
            "byteOffset" : 145688
        },
        {
            "buffer" : 0,
            "byteLength" : 2304,
            "byteOffset" : 145760
        },
        {
            "buffer" : 0,
            "byteLength" : 2304,
            "byteOffset" : 148064
        },
        {
            "buffer" : 0,
            "byteLength" : 1536,
            "byteOffset" : 150368
        },
        {
            "buffer" : 0,
            "byteLength" : 1536,
            "byteOffset" : 151904
        },
        {
            "buffer" : 0,
            "byteLength" : 1536,
            "byteOffset" : 153440
        },
        {
            "buffer" : 0,
            "byteLength" : 1024,
            "byteOffset" : 154976
        },
        {
            "buffer" : 0,
            "byteLength" : 372,
            "byteOffset" : 156000
        },
        {
            "buffer" : 0,
            "byteLength" : 23808,
            "byteOffset" : 156372
        },
        {
            "buffer" : 0,
            "byteLength" : 23808,
            "byteOffset" : 180180
        },
        {
            "buffer" : 0,
            "byteLength" : 15872,
            "byteOffset" : 203988
        },
        {
            "buffer" : 0,
            "byteLength" : 5760,
            "byteOffset" : 219860
        },
        {
            "buffer" : 0,
            "byteLength" : 23808,
            "byteOffset" : 225620
        },
        {
            "buffer" : 0,
            "byteLength" : 23808,
            "byteOffset" : 249428
        },
        {
            "buffer" : 0,
            "byteLength" : 15872,
            "byteOffset" : 273236
        },
        {
            "buffer" : 0,
            "byteLength" : 23808,
            "byteOffset" : 289108
        },
        {
            "buffer" : 0,
            "byteLength" : 23808,
            "byteOffset" : 312916
        },
        {
            "buffer" : 0,
            "byteLength" : 15872,
            "byteOffset" : 336724
        }
    ],
    "buffers" : [
        {
            "byteLength" : 352596,
            "uri" : "data:application/octet-stream;base64,"
        }
    ]
}
