<?xml version="1.0" standalone="no"?>
<!DOCTYPE svg PUBLIC "-//W3C//DTD SVG 20010904//EN"
 "http://www.w3.org/TR/2001/REC-SVG-20010904/DTD/svg10.dtd">
<svg version="1.0" xmlns="http://www.w3.org/2000/svg"
 width="700.000000pt" height="700.000000pt" viewBox="0 0 700.000000 700.000000"
 preserveAspectRatio="xMidYMid meet">
<metadata>
Created by potrace 1.11, written by Peter Selinger 2001-2013
</metadata>
<g transform="translate(0.000000,700.000000) scale(0.100000,-0.100000)"
fill="#000000" stroke="none">
<path d="M460 6617 c-3 -2 -25 -7 -50 -10 -179 -22 -325 -151 -385 -340 -26
-82 -29 -173 -7 -243 39 -123 188 -251 402 -343 l89 -38 -50 -49 c-57 -56
-128 -159 -152 -221 -25 -65 -31 -101 -31 -188 2 -187 112 -319 328 -389 15
-5 8 -14 -40 -45 -108 -70 -181 -161 -233 -293 -35 -85 -45 -145 -44 -247 3
-210 113 -360 311 -421 l54 -17 -64 -22 c-91 -33 -179 -84 -227 -132 -87 -87
-70 -182 49 -271 43 -33 170 -98 190 -98 23 -1 -10 -23 -114 -76 -157 -80
-183 -118 -191 -278 -9 -193 102 -343 307 -416 l50 -17 -58 -34 c-82 -46 -184
-151 -220 -224 -25 -52 -29 -71 -28 -145 0 -68 5 -97 26 -147 57 -135 165
-253 341 -371 26 -18 51 -32 55 -32 4 0 15 -7 25 -14 16 -12 13 -15 -35 -26
-130 -30 -279 -124 -333 -210 -90 -143 -51 -341 95 -478 130 -122 308 -140
430 -42 l36 28 49 -45 c71 -63 227 -165 317 -208 228 -108 430 -110 563 -4 37
29 115 133 115 152 0 13 35 87 40 85 3 -2 62 -31 131 -65 154 -77 246 -103
349 -97 103 5 122 9 214 54 124 59 189 133 188 213 -1 32 2 38 16 32 57 -22
156 -36 238 -34 186 5 328 84 386 217 23 50 20 98 -7 156 -19 39 -112 138
-175 185 -19 14 -44 34 -55 44 -19 17 -19 17 0 31 59 42 150 131 196 191 52
69 79 143 78 213 -1 92 -39 162 -128 235 -54 44 -183 109 -263 132 -32 9 -58
22 -58 28 0 7 7 39 14 72 41 177 42 337 1 450 -41 116 -132 239 -240 325 -156
124 -341 197 -497 196 l-67 -1 31 32 c40 42 50 88 27 133 -48 97 -226 207
-428 266 -47 13 -87 26 -89 28 -2 3 1 13 6 23 23 43 122 355 137 433 42 217 0
373 -139 516 -24 24 -43 44 -42 45 1 0 20 2 44 4 128 11 268 156 310 322 l18
71 23 -114 c50 -247 117 -366 241 -429 114 -58 223 -30 255 64 l10 31 35 -47
c62 -83 153 -131 258 -138 24 -2 45 -5 48 -8 3 -2 -27 -71 -66 -153 -104 -218
-122 -277 -121 -399 1 -114 53 -230 137 -304 95 -83 218 -119 291 -84 18 8 33
20 33 26 0 22 11 -2 25 -57 64 -245 274 -405 434 -331 148 69 211 237 177 470
-13 83 -54 210 -96 297 -44 91 -46 98 -27 98 20 0 95 68 112 101 49 94 -22
237 -168 339 -38 27 -46 38 -41 54 12 41 59 142 97 209 48 83 69 150 61 192
-8 46 -75 118 -162 175 l-76 50 47 43 c58 53 180 115 341 172 179 64 176 64
177 24 0 -19 2 -41 3 -49 2 -8 6 -40 10 -70 12 -106 17 -136 36 -215 56 -227
180 -338 358 -321 37 3 82 10 100 15 18 6 32 7 30 3 -2 -4 -24 -47 -49 -97
-124 -243 -189 -490 -189 -725 -1 -318 120 -571 359 -750 29 -22 49 -40 45
-41 -68 -6 -165 -51 -222 -103 -13 -12 -42 -46 -65 -76 -173 -225 -204 -586
-67 -785 24 -35 58 -65 139 -121 1 -2 -8 -18 -21 -36 -110 -155 -203 -405
-223 -603 -4 -33 -9 -71 -11 -85 -6 -35 -5 -255 1 -380 17 -354 18 -358 46
-451 36 -118 150 -208 272 -217 212 -16 458 192 512 432 l6 29 15 -29 c45 -86
183 -170 329 -199 85 -17 205 -17 274 0 83 20 110 39 155 108 58 90 72 100
126 94 26 -3 80 -22 121 -42 106 -51 155 -63 259 -63 227 0 344 98 335 278 -7
147 -67 245 -257 423 -18 17 -202 151 -258 188 l-25 17 28 22 c105 83 176 188
221 326 24 73 27 90 30 179 11 274 -139 452 -399 472 -38 3 -71 7 -73 8 -2 2
9 16 23 31 46 50 134 179 180 267 217 407 113 719 -284 857 -55 19 -76 30 -73
41 8 22 61 98 127 179 127 156 162 225 167 335 7 177 -68 281 -335 456 -5 4
-1 19 9 35 16 26 81 111 94 124 16 16 161 203 189 243 46 68 92 170 106 236
58 278 -131 600 -440 751 -296 144 -562 21 -749 -347 -20 -40 -48 -103 -61
-140 l-24 -68 -1 55 c-1 30 -3 62 -5 70 -2 8 -6 29 -9 46 -34 182 -191 375
-384 473 -75 38 -198 63 -282 58 -41 -3 -88 -8 -105 -12 -39 -8 -140 -56 -184
-87 l-34 -24 -56 33 c-191 115 -471 104 -686 -27 -99 -60 -137 -91 -190 -151
-69 -82 -96 -136 -132 -270 -9 -34 -9 -345 -1 -459 l8 -94 -48 54 c-167 192
-319 291 -470 306 l-58 6 -19 67 c-26 91 -98 233 -158 311 -190 248 -432 341
-672 258 -28 -10 -40 -5 -130 47 -247 143 -573 275 -773 315 -26 5 -58 12 -72
15 -35 8 -264 18 -270 12z"/>
</g>
</svg>
