{
    "asset" : {
        "generator" : "Khronos glTF Blender I/O v1.2.75",
        "version" : "2.0"
    },
    "scene" : 0,
    "scenes" : [
        {
            "name" : "Scene",
            "nodes" : [
                0,
                1
            ]
        }
    ],
    "nodes" : [
        {
            "mesh" : 0,
            "name" : "node-0"
        },
        {
            "mesh" : 1,
            "name" : "*",
            "scale" : [
                2.20188570022583,
                5.014502048492432,
                2.2410926818847656
            ],
            "translation" : [
                0,
                4.961949825286865,
                0
            ]
        }
    ],
    "materials" : [
        {
            "doubleSided" : true,
            "emissiveFactor" : [
                0,
                0,
                0
            ],
            "name" : "FFFFFF",
            "pbrMetallicRoughness" : {
                "baseColorFactor" : [
                    1,
                    1,
                    1,
                    1
                ],
                "metallicFactor" : 0,
                "roughnessFactor" : 0.7448017597198486
            }
        },
        {
            "doubleSided" : true,
            "emissiveFactor" : [
                0,
                0,
                0
            ],
            "name" : "455A64",
            "pbrMetallicRoughness" : {
                "baseColorFactor" : [
                    0.2705880105495453,
                    0.35294100642204285,
                    0.3921569883823395,
                    1
                ],
                "metallicFactor" : 0,
                "roughnessFactor" : 0.7448017597198486
            }
        },
        {
            "doubleSided" : true,
            "emissiveFactor" : [
                0,
                0,
                0
            ],
            "name" : "039BE5",
            "pbrMetallicRoughness" : {
                "baseColorFactor" : [
                    0.01176500041037798,
                    0.6078429818153381,
                    0.8980389833450317,
                    1
                ],
                "metallicFactor" : 0,
                "roughnessFactor" : 0.7448017597198486
            }
        }
    ],
    "meshes" : [
        {
            "name" : "buffer-0-mesh-0",
            "primitives" : [
                {
                    "attributes" : {
                        "POSITION" : 0,
                        "NORMAL" : 1
                    },
                    "indices" : 2,
                    "material" : 0
                },
                {
                    "attributes" : {
                        "POSITION" : 3,
                        "NORMAL" : 4
                    },
                    "indices" : 5,
                    "material" : 1
                },
                {
                    "attributes" : {
                        "POSITION" : 6,
                        "NORMAL" : 7
                    },
                    "indices" : 8,
                    "material" : 2
                }
            ]
        },
        {
            "name" : "Cube.001",
            "primitives" : [
                {
                    "attributes" : {
                        "POSITION" : 9,
                        "NORMAL" : 10,
                        "TEXCOORD_0" : 11
                    },
                    "indices" : 12
                }
            ]
        }
    ],
    "accessors" : [
        {
            "bufferView" : 0,
            "componentType" : 5126,
            "count" : 290,
            "max" : [
                2.2650129795074463,
                9.943841934204102,
                2.3147459030151367
            ],
            "min" : [
                -2.2650129795074463,
                0,
                -2.2650129795074463
            ],
            "type" : "VEC3"
        },
        {
            "bufferView" : 1,
            "componentType" : 5126,
            "count" : 290,
            "type" : "VEC3"
        },
        {
            "bufferView" : 2,
            "componentType" : 5123,
            "count" : 348,
            "type" : "SCALAR"
        },
        {
            "bufferView" : 3,
            "componentType" : 5126,
            "count" : 297,
            "max" : [
                1.6620930433273315,
                7.085536003112793,
                2.5259759426116943
            ],
            "min" : [
                1.4569909572601318,
                4.414859771728516,
                2.277462959289551
            ],
            "type" : "VEC3"
        },
        {
            "bufferView" : 4,
            "componentType" : 5126,
            "count" : 297,
            "type" : "VEC3"
        },
        {
            "bufferView" : 5,
            "componentType" : 5123,
            "count" : 438,
            "type" : "SCALAR"
        },
        {
            "bufferView" : 6,
            "componentType" : 5126,
            "count" : 775,
            "max" : [
                2.2650129795074463,
                9.943841934204102,
                1.8132400512695312
            ],
            "min" : [
                -2.2650129795074463,
                0,
                -2.069612979888916
            ],
            "type" : "VEC3"
        },
        {
            "bufferView" : 7,
            "componentType" : 5126,
            "count" : 775,
            "type" : "VEC3"
        },
        {
            "bufferView" : 8,
            "componentType" : 5123,
            "count" : 1164,
            "type" : "SCALAR"
        },
        {
            "bufferView" : 9,
            "componentType" : 5126,
            "count" : 24,
            "max" : [
                1,
                1,
                1
            ],
            "min" : [
                -1,
                -1,
                -1
            ],
            "type" : "VEC3"
        },
        {
            "bufferView" : 10,
            "componentType" : 5126,
            "count" : 24,
            "type" : "VEC3"
        },
        {
            "bufferView" : 11,
            "componentType" : 5126,
            "count" : 24,
            "type" : "VEC2"
        },
        {
            "bufferView" : 12,
            "componentType" : 5123,
            "count" : 36,
            "type" : "SCALAR"
        }
    ],
    "bufferViews" : [
        {
            "buffer" : 0,
            "byteLength" : 3480,
            "byteOffset" : 0
        },
        {
            "buffer" : 0,
            "byteLength" : 3480,
            "byteOffset" : 3480
        },
        {
            "buffer" : 0,
            "byteLength" : 696,
            "byteOffset" : 6960
        },
        {
            "buffer" : 0,
            "byteLength" : 3564,
            "byteOffset" : 7656
        },
        {
            "buffer" : 0,
            "byteLength" : 3564,
            "byteOffset" : 11220
        },
        {
            "buffer" : 0,
            "byteLength" : 876,
            "byteOffset" : 14784
        },
        {
            "buffer" : 0,
            "byteLength" : 9300,
            "byteOffset" : 15660
        },
        {
            "buffer" : 0,
            "byteLength" : 9300,
            "byteOffset" : 24960
        },
        {
            "buffer" : 0,
            "byteLength" : 2328,
            "byteOffset" : 34260
        },
        {
            "buffer" : 0,
            "byteLength" : 288,
            "byteOffset" : 36588
        },
        {
            "buffer" : 0,
            "byteLength" : 288,
            "byteOffset" : 36876
        },
        {
            "buffer" : 0,
            "byteLength" : 192,
            "byteOffset" : 37164
        },
        {
            "buffer" : 0,
            "byteLength" : 72,
            "byteOffset" : 37356
        }
    ],
    "buffers" : [
        {
            "byteLength" : 37428,
            "uri" : "data:application/octet-stream;base64,"
        }
    ]
}
